inDegrees=no
num_controls=7
num_derivatives=13
num_iterations=275
num_multipliers=7
num_parameters=0
num_slacks=7
num_states=26
objective=6.535143
objective_accelerations=0.762071
objective_balance=0.023502
objective_effort=0.574304
objective_height=5.063606
objective_ligament=0.111660
solver_duration=2338.894758
status=Solve_Succeeded
success=true
DataType=double
version=3
OpenSimVersion=4.4-2022-07-23-0e9fedc
endheader
time	/jointset/ground_pelvis/pelvis_tilt/value	/jointset/ground_pelvis/pelvis_tx/value	/jointset/ground_pelvis/pelvis_ty/value	/jointset/hip_r/hip_flexion_r/value	/jointset/hip_r/hip_adduction_r/value	/jointset/hip_r/hip_rotation_r/value	/jointset/back/lumbar_extension/value	/jointset/patellofemoral_r/patellar_flexion_r/value	/jointset/knee_r/knee_flexion_r/value	/jointset/knee_r/knee_adduction_r/value	/jointset/knee_r/knee_rotation_r/value	/jointset/ankle_r/ankle_angle_r/value	/jointset/subtalar_r/subtalar_angle_r/value	/jointset/ground_pelvis/pelvis_tilt/speed	/jointset/ground_pelvis/pelvis_tx/speed	/jointset/ground_pelvis/pelvis_ty/speed	/jointset/hip_r/hip_flexion_r/speed	/jointset/hip_r/hip_adduction_r/speed	/jointset/hip_r/hip_rotation_r/speed	/jointset/back/lumbar_extension/speed	/jointset/patellofemoral_r/patellar_flexion_r/speed	/jointset/knee_r/knee_flexion_r/speed	/jointset/knee_r/knee_adduction_r/speed	/jointset/knee_r/knee_rotation_r/speed	/jointset/ankle_r/ankle_angle_r/speed	/jointset/subtalar_r/subtalar_angle_r/speed	/forceset/tau_hip_flexion_r	/forceset/tau_hip_adduction_r	/forceset/tau_hip_rotation_r	/forceset/tau_knee_flexion_r	/forceset/tau_ankle_angle_r	/forceset/tau_subtalar_angle_r	/forceset/tau_lumbar_extension	lambda_cid13_p0	lambda_cid14_p0	lambda_cid14_p1	lambda_cid14_p2	lambda_cid14_p3	lambda_cid14_p4	lambda_cid14_p5	/jointset/ground_pelvis/pelvis_tilt/accel	/jointset/ground_pelvis/pelvis_tx/accel	/jointset/ground_pelvis/pelvis_ty/accel	/jointset/hip_r/hip_flexion_r/accel	/jointset/hip_r/hip_adduction_r/accel	/jointset/hip_r/hip_rotation_r/accel	/jointset/back/lumbar_extension/accel	/jointset/patellofemoral_r/patellar_flexion_r/accel	/jointset/knee_r/knee_flexion_r/accel	/jointset/knee_r/knee_adduction_r/accel	/jointset/knee_r/knee_rotation_r/accel	/jointset/ankle_r/ankle_angle_r/accel	/jointset/subtalar_r/subtalar_angle_r/accel	gamma_cid13_p0	gamma_cid14_p0	gamma_cid14_p1	gamma_cid14_p2	gamma_cid14_p3	gamma_cid14_p4	gamma_cid14_p5
1	-0.3655520155057466	-0.04130381921389319	0.6064664552465032	1.68045847924087	-0.2277504771629428	-0.08314668215786977	-0.4363317310217025	1.495445425552271	1.495445425552343	-0.1431182541611608	0.1715518048862299	0.387251063216814	0.09958436743153322	-0.005765171600265917	0.00113247218779289	0.01811562918662274	-0.04151456679471161	0.001402322656093862	-0.002949543128384251	3.710009145227815e-06	-0.05492591716273355	-0.05492591716273351	0.009874609572605135	0.001153264302774363	-0.009244155901863674	-0.001128349381877211	-0.3337798746256628	-0.005058809511824075	0.00298957657090196	-0.5213426716396813	0.05516748624719071	0.01211888876354772	0.3332576961771156	-0.04321814483674329	-32.93478960322865	-1.273831792269341	1.543059207126629	19.28841923451983	-824.5868154795919	71.15600112683097	1.246601441721342	0.01630296794422157	2.145000678032934	-6.309907515262465	0.1509618637116306	-0.2290286634327157	-0.01584054661193613	-5.961081558361902	-5.961081558361944	1.168208865380485	0.1201710054592958	-1.080314724091711	-0.1547746988044001	5.860953243782984e-09	1.167773110803104e-08	3.708392192345301e-08	5.751750498620423e-08	-7.30889212149244e-09	-7.220584648807558e-09	8.694318806724549e-08
1.01	-0.3655478465051558	-0.04129166171360296	0.6067546889039668	1.679728663911624	-0.2277288861554222	-0.08318474353785654	-0.4363318170868297	1.494598526684131	1.494598526684137	-0.1429583209167769	0.1715687325613489	0.3871045652108779	0.09956530105466257	0.006602309991346455	0.001303457549029981	0.03952412496566427	-0.1044365832838797	0.002915180205286579	-0.004665843097751089	-1.582990717586501e-05	-0.1144446431802109	-0.1144446431802104	0.02210803834523103	0.002228092041163626	-0.02006254490026365	-0.002688471944452797	-0.3336257457886634	-0.005091768634722268	0.003062224693024845	-0.5210319330570891	0.055285276260738	0.01211638909885901	0.3331498267858831	-0.04323042516067296	-32.87683015067689	-1.258903166975984	1.533979053384433	19.18970653167734	-824.3079783170525	71.16024840978609	1.232326367152731	0.01815746665211146	2.137724458797078	-6.281557422401085	0.1513593458780066	-0.1433885752091452	0.005753253971907024	-5.94588851735264	-5.94588851735253	1.25030770639944	0.1005427536997902	-1.08366575964242	-0.157136889235969	1.187273370748491e-08	2.439123332721226e-08	7.710609791760427e-08	1.186782757473877e-07	-1.643454125758878e-08	-1.476364028402839e-08	1.794903730563218e-07
1.02	-0.3654199017187945	-0.04127766213041264	0.6072567976054124	1.678369986676156	-0.227692184243338	-0.08324005949984604	-0.4363319457574652	1.493156716477034	1.493156716476977	-0.1426761738200295	0.171596289332982	0.3868496703605723	0.09953053228131584	0.01898998555382167	0.001500888767813821	0.06089063798301348	-0.1672869480393307	0.004424503568678149	-0.006400459527937746	-4.811098933046024e-06	-0.1739081849541678	-0.1739081849541664	0.03431738004569016	0.003279083606394945	-0.0309235247757951	-0.004268828677101911	-0.3334716169516612	-0.005124727757628438	0.003134872815197881	-0.5207211944744937	0.05540306627428269	0.01211388943415575	0.3330419573946528	-0.04325353980056557	-32.82704585119314	-1.241637722010448	1.520221716740665	19.11824820744071	-824.1467252363352	71.19480035917492	1.250640235893932	0.02159213945355933	2.136604125694466	-6.295577168519034	0.1502550265514032	-0.2326919555966791	-0.009728801699336426	-5.950044709657781	-5.950044709657774	1.163391450947131	0.1154037708277047	-1.088832899518029	-0.1588215328191104	1.744856751503506e-08	3.672882540351139e-08	1.146800782590749e-07	1.761408568610017e-07	-2.610109622850425e-08	-2.16618186866459e-08	2.655107260511777e-07
1.03	-0.3651678946373125	-0.04126153301387847	0.6079722666779573	1.676383322188046	-0.2276404169878732	-0.0833129090962281	-0.43633195734607	1.491120698107117	1.491120698107047	-0.1422721703724352	0.1716342054665597	0.3864858526396622	0.09947980916579893	0.03142299176244547	0.001731644349266139	0.08218678565967749	-0.2300184132692729	0.005927286009572379	-0.008173597692405901	-6.917707802426685e-06	-0.2332710386234438	-0.2332710386234451	0.04647618661858621	0.004295503954543	-0.04185694948413406	-0.005884298991630781	-0.3328688189757811	-0.0052200580406848	0.003286338290755389	-0.5201682223345482	0.05579047585954072	0.01210037765033917	0.3325819867779118	-0.04328530176919234	-32.65845934761371	-1.20424258715608	1.498559990089926	18.95016731507853	-823.4674192689414	71.2350768899454	1.241372866582601	0.02481652574292527	2.123655706246997	-6.257793172221896	0.1500730438904495	-0.1502284793782866	0.003136744357491138	-5.925742772433974	-5.925742772434377	1.241053064951724	0.09352617581869829	-1.098136278469539	-0.16413405584981	2.301995288731836e-08	4.906258166202601e-08	1.522290770122529e-07	2.335657013455588e-07	-3.577317064671379e-08	-2.855341670933889e-08	3.514644787195618e-07
